<?xml version="1.0" encoding="UTF-8" standalone="no"?>
<!-- Created with Inkscape (http://www.inkscape.org/) -->

<svg
   width="223.94273mm"
   height="47.065681mm"
   viewBox="0 0 60.525065 12.720455"
   version="1.1"
   id="svg1"
   inkscape:version="1.4.3 (0d15f75, 2025-12-25)"
   sodipodi:docname="DONYLOGIC LOGO.svg"
   inkscape:export-filename="..\DONYLOGIC LOGO.jpg"
   inkscape:export-xdpi="96"
   inkscape:export-ydpi="96"
   xmlns:inkscape="http://www.inkscape.org/namespaces/inkscape"
   xmlns:sodipodi="http://sodipodi.sourceforge.net/DTD/sodipodi-0.dtd"
   xmlns="http://www.w3.org/2000/svg"
   xmlns:svg="http://www.w3.org/2000/svg">
  <sodipodi:namedview
     id="namedview1"
     pagecolor="#000000"
     bordercolor="#000000"
     borderopacity="0.25"
     inkscape:showpageshadow="2"
     inkscape:pageopacity="0.0"
     inkscape:pagecheckerboard="true"
     inkscape:deskcolor="#d1d1d1"
     inkscape:document-units="mm"
     inkscape:zoom="0.5"
     inkscape:cx="210"
     inkscape:cy="63"
     inkscape:window-width="1031"
     inkscape:window-height="991"
     inkscape:window-x="-8"
     inkscape:window-y="0"
     inkscape:window-maximized="0"
     inkscape:current-layer="g117"
     inkscape:export-bgcolor="#000000d6" />
  <defs
     id="defs1">
    <inkscape:path-effect
       effect="spiro"
       id="path-effect12"
       is_visible="true"
       lpeversion="1" />
    <inkscape:path-effect
       effect="spiro"
       id="path-effect11"
       is_visible="true"
       lpeversion="1" />
    <inkscape:path-effect
       effect="spiro"
       id="path-effect10"
       is_visible="true"
       lpeversion="1" />
    <rect
       x="133.3261"
       y="448.72116"
       width="523.26904"
       height="126.15802"
       id="rect1" />
    <rect
       x="133.3261"
       y="448.72116"
       width="523.26904"
       height="126.15802"
       id="rect1-4" />
    <clipPath
       clipPathUnits="userSpaceOnUse"
       id="clipPath106">
      <path
         id="path107"
         style="fill:#ff0000;fill-opacity:1;fill-rule:nonzero;stroke:none;stroke-width:0.071509"
         d="m 97.357958,138.65685 v 10.75834 c 0.125902,-0.0137 0.252556,-0.0162 0.379054,-0.0194 0.165735,-0.004 0.331583,-0.005 0.497351,-0.005 0.192416,-7.1e-4 0.384825,-8.3e-4 0.577241,-9.7e-4 0.160395,-1.4e-4 0.320754,-1.4e-4 0.481149,-1.4e-4 v -8.68891 c -0.112806,-0.3413 -0.228457,-0.68172 -0.348607,-1.02054 -0.123496,-0.3425 -0.245655,-0.68643 -0.38534,-1.02277 z m 1.587025,0 c 0.119055,0.29764 0.226776,0.60009 0.335477,0.9014 0.0041,0.0115 0.0082,0.023 0.01229,0.0345 v -0.9359 z m 0.05252,11.06295 c -0.07775,-7.2e-4 -0.155625,0.001 -0.233241,0.006 -0.08434,0.006 -0.16864,0.0115 -0.253077,0.0154 -0.08964,0.003 -0.179309,0.004 -0.268997,0.005 -0.119684,7.1e-4 -0.239396,7.1e-4 -0.359081,8.5e-4 h -0.36411 c -0.05368,2e-5 -0.10736,0 -0.161035,0 v 1.57977 h 1.934795 v -1.60657 c -0.02891,-1e-5 -0.05782,-1e-5 -0.08673,0 h -0.20852 z" />
    </clipPath>
    <clipPath
       clipPathUnits="userSpaceOnUse"
       id="clipPath109">
      <path
         id="path110"
         style="fill:#ff0000;fill-opacity:1;fill-rule:nonzero;stroke:none;stroke-width:0.071509"
         d="m 96.728204,149.67315 v 0.0209 h 0.133242 c -7.15e-4,-0.005 -0.0011,-0.0106 -0.0011,-0.0158 -0.04395,-0.002 -0.08808,-0.003 -0.132124,-0.005 z" />
    </clipPath>
    <clipPath
       clipPathUnits="userSpaceOnUse"
       id="clipPath168">
      <path
         id="path169"
         style="fill:#ff0000;fill-opacity:1;fill-rule:nonzero;stroke:none;stroke-width:0.071509"
         d="m 59.739354,70.031763 v 0.84903 c 0.01784,-0.02543 0.03446,-0.0517 0.05042,-0.07835 0.01113,-0.01747 0.02222,-0.03491 0.03338,-0.05237 -0.02187,-0.0077 -0.04054,-0.01963 -0.05419,-0.03743 -0.01491,-0.01943 -0.01778,-0.04575 -0.02668,-0.06858 -0.0041,-0.05358 -0.0048,-0.08676 0.0426,-0.12947 0.01283,-0.01155 0.03052,-0.01602 0.04581,-0.02402 0.08304,-0.02238 0.0399,-0.01288 0.129889,-0.02793 0.01616,-0.0027 0.03108,-0.0036 0.04469,-0.0031 0.05416,-0.08995 0.106073,-0.181191 0.153633,-0.275001 0.03833,-0.07711 0.05127,-0.101107 0.0743,-0.152796 z m 0.688274,0 c -0.01624,0.03905 -0.03309,0.0779 -0.05112,0.116203 -0.01838,0.03905 -0.03823,0.07738 -0.0574,0.116062 -0.04059,0.08023 -0.08421,0.158572 -0.12975,0.235896 0.0043,3.57e-4 0.0085,8.72e-4 0.01271,0.0014 0.0212,-0.0299 0.07609,-0.04911 0.118157,-0.06271 -0.01512,-0.144335 -0.02815,-0.156068 0.02751,-0.156426 0.0019,-0.0036 0.0077,-0.0023 0.01411,1.43e-4 0.0081,7.2e-5 0.01727,2.15e-4 0.02765,1.43e-4 0.0667,0.0044 0.134619,-0.0024 0.20112,0.0057 0.0064,7.94e-4 0.01347,6.44e-4 0.02053,7.15e-4 0.02671,-0.02671 0.05261,-0.0542 0.07807,-0.08212 0.03353,-0.03678 0.06778,-0.05313 0.09693,-0.05475 0.03652,-0.002 0.06512,0.01908 0.07458,0.05209 0.01188,-0.01586 0.02434,-0.03287 0.04274,-0.03589 0.05219,-0.0087 0.08816,-0.0061 0.112989,0.005 0.01651,-0.03599 0.02927,-0.06455 0.05782,-0.127934 0.002,-0.0045 0.0041,-0.009 0.0061,-0.01355 z m 1.037579,0 c -0.0093,0.0231 -0.01902,0.04577 -0.02821,0.06676 -0.01,0.02277 -0.008,0.0592 -0.03143,0.0676 -0.01181,0.0043 -0.02386,0.0071 -0.03617,0.0089 -0.04812,0.09799 -0.09835,0.194911 -0.150141,0.290924 -0.03901,0.07004 -0.07675,0.14086 -0.110894,0.21341 -0.01793,0.03809 -0.03903,0.101083 -0.07835,0.124303 -0.03289,0.01943 -0.07335,0.02113 -0.110057,0.0317 -0.03481,-0.01449 -0.072,-0.02427 -0.10447,-0.04344 -0.01693,-0.01 -0.03471,-0.02364 -0.05279,-0.03925 -0.01143,0.02177 -0.03209,0.03956 -0.06495,0.04833 -0.02736,0.0073 -0.03491,0.01008 -0.04176,0.01131 -0.0034,0.0042 -0.0067,0.0083 -0.0099,0.01215 -0.02624,0.03164 -0.0467,0.07469 -0.0852,0.08911 -0.101097,0.03785 -0.154684,0.02387 -0.175979,-0.03436 -0.0055,-5.01e-4 -0.01089,-0.0012 -0.01634,-0.002 -0.0036,0.0047 -0.0073,0.0094 -0.01103,0.01397 -0.07595,0.103372 -0.149227,0.208072 -0.222767,0.313131 -0.0189,0.02702 -0.02457,0.08064 -0.05754,0.08045 -0.194526,-0.0012 -0.16364,-0.05124 -0.14204,-0.131705 0.02607,-0.08324 0.05005,-0.167104 0.07528,-0.250561 -0.05088,0.0373 -0.100659,0.07607 -0.150001,0.115504 -0.03159,0.0423 -0.06633,0.08191 -0.106985,0.115643 -0.0047,0.0039 -0.0093,0.0092 -0.01411,0.01397 v 2.463006 h 5.561921 V 70.03168 Z m -0.567044,0.433105 c -0.0054,0.0082 -0.01072,0.01609 -0.01564,0.0236 0.0099,-0.0017 0.01981,-0.0032 0.02975,-0.0047 -0.0063,-0.0045 -0.0108,-0.01084 -0.01411,-0.01886 z m -1.031852,0.110615 v 1.43e-4 c 2.1e-5,1.7e-5 2.14e-4,1.43e-4 2.86e-4,1.43e-4 l -1.43e-4,-2.86e-4 z m 7.15e-4,4.29e-4 c 0.0016,9.44e-4 0.0083,0.004 0.01131,0.0046 0.0014,2.15e-4 0.0028,5.01e-4 0.004,7.15e-4 -0.004,-0.0014 -0.0091,-0.003 -0.01536,-0.0053 z m 1.038277,0.107264 c -0.0033,7.2e-5 -0.0065,7.2e-5 -0.0098,1.43e-4 1.43e-4,6.44e-4 2.86e-4,0.0013 5.72e-4,0.002 2.86e-4,7.29e-4 7.37e-4,0.0013 0.0011,0.0017 l 1.43e-4,1.43e-4 1.43e-4,1.43e-4 h 1.43e-4 c 0.0019,6.43e-4 0.0047,-0.0012 0.0077,-0.004 z m -0.793163,0.148185 -0.0054,0.0036 c 0.0069,0.0043 0.01153,0.0083 0.01299,0.0091 h 1.43e-4 1.43e-4 v -1.43e-4 -1.43e-4 c -5e-4,-0.0012 -0.0029,-0.005 -0.0077,-0.01243 z" />
    </clipPath>
    <clipPath
       clipPathUnits="userSpaceOnUse"
       id="clipPath311">
      <path
         id="path312"
         style="fill:#ff0000;fill-opacity:1;fill-rule:nonzero;stroke:none;stroke-width:0.273137"
         d="m 362.68409,435.04708 -74.73768,5.5e-4 c 0.45089,1.15088 0.85849,2.32086 1.27005,3.48601 0.9,2.59152 1.73252,5.20681 2.54963,7.82654 0.40605,1.30185 -0.88146,1.72075 -1.28749,0.41891 -0.81187,-2.6032 -1.63911,-5.20175 -2.53324,-7.77695 -0.46749,-1.32415 -0.93011,-2.65426 -1.45903,-3.95451 l -136.00408,0.002 v 48.90608 h 101.30916 c 0.94543,-2.72253 1.89117,-5.44511 2.75444,-8.19641 0.73063,-2.27196 1.45357,-4.54754 2.21072,-6.81082 -0.0111,-0.0192 -0.0135,-0.0489 10e-4,-0.0857 0.006,-0.0158 0.0124,-0.0316 0.0185,-0.0474 0.0494,-0.12511 0.0888,-0.25366 0.12352,-0.38386 0.0443,-0.1664 0.0828,-0.33449 0.13461,-0.4987 0.0412,-0.13263 0.0795,-0.26628 0.11877,-0.39949 0.0358,-0.11635 0.0705,-0.23275 0.10715,-0.34882 0.0306,-0.0904 0.0616,-0.18093 0.0839,-0.27388 0.007,-0.0253 0.0146,-0.0504 0.0222,-0.0755 -0.008,-0.0205 -0.005,-0.0496 0.0143,-0.083 0.008,-0.0146 0.0169,-0.0295 0.0254,-0.0442 0.01,-0.0403 0.0168,-0.0812 0.0269,-0.12131 0.014,-0.0457 0.03,-0.0907 0.0417,-0.13693 0.0129,-0.0486 0.0197,-0.0985 0.0322,-0.14719 0.0158,-0.0566 0.0324,-0.11328 0.0544,-0.16767 0.0235,-0.0536 0.0466,-0.10673 0.0655,-0.16227 0.0143,-0.0432 0.0294,-0.0872 0.0396,-0.13155 0.0128,-0.0551 0.045,-0.0815 0.0728,-0.082 0.007,-1.1e-4 0.0135,0.001 0.0195,0.004 0.003,-8.3e-4 0.005,-0.001 0.008,-0.002 0.0267,-0.003 0.0552,0.0176 0.0644,0.0631 0.18411,-0.51899 0.37128,-1.03651 0.56166,-1.55323 0.19138,-0.5195 0.51494,-0.75105 0.80024,-0.75748 0.417,-0.009 0.75224,0.46242 0.47246,1.22167 -0.36469,0.98962 -0.71706,1.98343 -1.0605,2.98085 0.35968,0.22902 0.55144,0.79632 0.265,1.59582 -0.42719,1.19228 -0.7942,2.40439 -1.14919,3.6208 0.009,0.0107 0.0149,0.0274 0.0153,0.0501 2.6e-4,0.0242 -0.002,0.0478 -0.006,0.0712 0.0354,0.0278 0.0637,0.0802 0.0686,0.15689 0.002,0.0292 5.4e-4,0.0578 -0.003,0.0863 v 5.5e-4 5.6e-4 c -0.007,0.0589 -0.0226,0.11661 -0.0401,0.1736 -0.006,0.0192 -0.0123,0.0382 -0.019,0.0571 -10e-4,0.011 -0.003,0.0219 -0.005,0.0329 -0.0118,0.0692 -0.0245,0.13805 -0.0475,0.20433 -0.017,0.046 -0.0452,0.0851 -0.0781,0.12023 -0.01,0.0278 -0.0189,0.0558 -0.0259,0.0846 -0.0444,0.13731 -0.0994,0.27125 -0.15467,0.40435 -0.0438,0.1104 -0.0778,0.22427 -0.11032,0.33857 -0.0363,0.10631 -0.0733,0.21255 -0.11033,0.31863 -0.0378,0.1131 -0.0879,0.22105 -0.13566,0.32994 -0.0551,0.13479 -0.10274,0.27259 -0.15309,0.4092 -0.0363,0.0961 -0.073,0.19214 -0.11138,0.28736 -0.0272,0.0893 -0.0547,0.17821 -0.0823,0.26741 -0.28867,0.93574 -0.59409,1.86615 -0.89105,2.79917 -1.2175,3.58284 -0.85073,2.51368 -1.64802,4.82952 h 108.1752 v -0.51003 -2.53821 -2.58352 c -0.045,-0.9341 0.176,-1.83692 0.38216,-2.7377 v -1.52412 c 0,-0.87634 0.39327,-1.35534 0.82295,-1.43678 0.22562,-0.30796 0.50945,-0.4512 0.77491,-0.44963 0.54565,0.003 1.01517,0.61771 0.7496,1.67022 -0.16189,0.64175 -0.3173,1.28462 -0.43076,1.93763 -0.003,0.008 -0.004,0.0154 -0.005,0.0232 v 1.84061 3.95776 c 0.0267,0.78377 0.0668,1.56657 0.10135,2.35004 H 379.2385 V 435.0487 h -14.40033 c 0.006,1.33464 0.004,2.66936 0.003,4.00411 v 3.44072 c 0,1.23788 -0.78432,1.68254 -1.34819,1.33435 -0.45811,0.40011 -1.14121,0.0151 -0.97548,-0.97421 0.007,-0.0432 0.0127,-0.0862 0.0189,-0.12939 -0.0431,-0.13152 -0.0696,-0.28636 -0.0739,-0.46419 -0.0135,-0.5599 0.0176,-1.11846 0.0475,-1.67723 0.0378,-0.6904 0.0556,-1.38167 0.0676,-2.07295 0.008,-0.7951 0.01,-1.58966 0.0459,-2.38403 0.0116,-0.36137 0.051,-0.7199 0.10135,-1.07718 h -0.0401 v -10e-4 z m 0,0.15742 c 0,0.005 0,0.009 -0.003,0.014 3e-5,-0.005 0,-0.009 0.003,-0.014 z m -0.003,0.0172 c 0,0.01 0,0.0197 -0.003,0.0297 0,-0.01 0,-0.0197 0.003,-0.0297 z m -0.005,0.12885 c 0,0 0.003,-10e-6 0.003,0 v 5.5e-4 5.6e-4 5.5e-4 5.5e-4 5.5e-4 5.6e-4 5.5e-4 5.5e-4 5.5e-4 5.5e-4 5.6e-4 5.5e-4 5.5e-4 c 0,4e-5 -1.6e-4,0 -0.003,0 3e-5,-10e-4 0,-0.003 0,-0.004 v -5.5e-4 -5.6e-4 -5.5e-4 -5.5e-4 -5.5e-4 z m -104.99985,30.8215 c -0.002,0.004 -0.004,0.009 -0.006,0.0129 -0.0196,0.0491 -0.0346,0.10001 -0.0486,0.15096 -0.003,0.0117 -0.005,0.0233 -0.008,0.035 0.005,-0.007 0.01,-0.0147 0.0142,-0.0221 0.017,-0.0586 0.0342,-0.11739 0.048,-0.17684 z m 33.60855,10.30223 v 5.5e-4 c 0.0362,-2.6e-4 0.0725,10e-4 0.10873,0.002 0.0262,0.002 0.0566,-0.007 0.0781,0.008 0.0585,0.0423 0.10027,0.10509 0.15043,0.15742 -0.0373,0.0634 -0.0624,0.13656 -0.10768,0.19355 0.10825,0.0155 0.17206,0.069 0.19268,0.12939 h 0.57695 c 0.33443,0 0.33443,0.34505 0,0.34505 h -0.20692 c 0.0371,0 0.0743,0.003 0.11137,0.003 0.163,0.0141 0.19287,0.0298 0.15152,0.32188 -0.006,0.0461 -0.20927,0.0691 -0.24441,0.0749 -0.24243,0.0301 -0.48721,0.0334 -0.73111,0.0388 -0.26659,0.005 -0.53359,0.007 -0.80024,0.008 -0.25565,0 -0.51135,0.003 -0.767,0.003 -0.28719,1.7e-4 -0.57427,-2e-5 -0.86151,0 -0.26279,3e-5 -0.52525,0 -0.78811,0 -0.29381,-0.003 -0.58816,0.005 -0.88154,0.0215 -0.31873,0.0215 -0.63735,0.0442 -0.95649,0.0593 -0.33878,0.0132 -0.6777,0.016 -1.01669,0.0188 -0.45235,0.003 -0.90481,0.003 -1.35716,0.003 h -1.37616 -1.51552 -0.60494 c -0.004,0 -0.21839,0.003 -0.24863,-0.003 -0.0309,-0.005 -0.06,-0.0174 -0.0903,-0.0259 -0.004,-0.0776 -0.0298,-0.15803 -0.0301,-0.23507 -0.47879,-0.0229 -0.96096,-0.0248 -1.43581,-0.0949 -0.12613,-0.03 -0.44229,-0.0683 -0.39221,-0.29599 0.0368,-0.16741 0.17864,-0.1657 0.2935,-0.18654 0.0716,-0.007 0.14318,-0.0124 0.21484,-0.0166 -0.10025,-0.10092 -0.0313,-0.27497 0.2064,-0.27497 v -0.006 h 0.58488 c 0.008,-0.0272 0.0183,-0.0573 0.029,-0.0906 0.007,-0.0216 0.0442,-0.004 0.0665,-0.005 0.0236,-0.001 0.0473,-0.002 0.0707,-0.003 0.21653,-0.005 0.43325,-0.004 0.64981,-0.004 0.26156,-2.6e-4 0.52288,-5.5e-4 0.78442,-5.5e-4 0.16932,-0.002 0.33917,0.004 0.50834,-0.007 0.0488,-0.003 0.25151,-0.0249 0.29192,-0.0291 0.47845,-0.0537 0.9598,-0.0637 1.44056,-0.076 0.6264,-0.0143 1.25322,-0.0181 1.87975,-0.021 0.72724,-0.003 1.45446,-0.003 2.1817,-0.004 0.60797,-5.6e-4 1.21581,-5.6e-4 1.82378,-5.6e-4 0.51352,-8e-5 1.02733,0 1.54087,0 0.15865,0.005 0.31703,-0.006 0.47562,-0.008 z m -12.78929,0.62539 -5.4e-4,0.003 c 0.003,0.003 0.0129,0.011 0.0322,0.0182 -0.0136,-0.0135 -0.0258,-0.0196 -0.0306,-0.0199 h -5.4e-4 z" />
    </clipPath>
    <clipPath
       clipPathUnits="userSpaceOnUse"
       id="clipPath314">
      <path
         id="path315"
         style="fill:#ff0000;fill-opacity:1;fill-rule:nonzero;stroke:none;stroke-width:0.071509"
         d="m 60.867018,68.600186 v 4.740407 h 1.702808 c 0.250468,-0.706209 0.501052,-1.412325 0.729755,-2.125998 0.193306,-0.588553 0.384573,-1.1781 0.584921,-1.764401 -0.003,-0.005 -0.0036,-0.01261 2.86e-4,-0.02221 0.0016,-0.0041 0.0033,-0.0082 0.0049,-0.01229 0.01308,-0.03241 0.02348,-0.06571 0.03268,-0.09944 0.01173,-0.04311 0.02192,-0.08665 0.03561,-0.129191 0.01089,-0.03436 0.02105,-0.06898 0.03143,-0.103492 0.0095,-0.03014 0.01865,-0.06029 0.02835,-0.09036 0.0081,-0.02341 0.01631,-0.04687 0.02221,-0.07095 0.0019,-0.0066 0.0039,-0.01305 0.0059,-0.01955 -0.002,-0.0053 -0.0013,-0.01287 0.0038,-0.02151 0.0022,-0.0037 0.0044,-0.0075 0.0066,-0.01131 0.0026,-0.01049 0.0046,-0.02112 0.0073,-0.03157 0.0037,-0.01183 0.0079,-0.02349 0.01103,-0.03548 0.0034,-0.01258 0.0052,-0.02551 0.0085,-0.03813 0.0042,-0.01465 0.0086,-0.02935 0.01439,-0.04344 0.0062,-0.01388 0.01232,-0.02765 0.01732,-0.04204 0.0038,-0.0112 0.0078,-0.0226 0.01047,-0.03408 0.0034,-0.01426 0.0119,-0.02112 0.01927,-0.02123 0.001,-1.6e-5 0.002,4.6e-5 0.0029,2.86e-4 v -0.02402 z m 3.280336,0.08129 c -8.79e-4,0.0026 -0.0018,0.0052 -0.0027,0.0078 -0.0053,0.01535 -0.01184,0.03018 -0.01843,0.04497 -0.0052,0.01272 -0.0091,0.02591 -0.01285,0.03911 -7.36e-4,0.0031 -0.0014,0.0061 -0.0021,0.0092 0.0015,-0.0024 0.0031,-0.0047 0.0046,-0.0071 0.0036,-0.0058 0.0071,-0.01161 0.01062,-0.01746 0.0069,-0.01927 0.01387,-0.03856 0.02081,-0.05782 z m 0,1.774597 c -0.09021,0.302001 -0.177114,0.605097 -0.27179,0.905594 -0.07637,0.242412 -0.157186,0.48344 -0.235756,0.725148 -0.322614,0.929553 -0.224831,0.650332 -0.437016,1.253782 h 0.944562 z" />
    </clipPath>
  </defs>
  <g
     inkscape:label="Слой 1"
     inkscape:groupmode="layer"
     id="layer1"
     style="display:inline"
     transform="translate(-35.766103,-60.630055)">
    <a
       id="a53"
       transform="translate(-26.807615,-77.98732)">
      <g
         id="g123">
        <g
           id="g122">
          <g
             id="g120">
            <g
               id="g119">
              <g
                 id="g118">
                <g
                   id="g117">
                  <g
                     id="g124">
                    <path
                       style="font-weight:bold;font-stretch:condensed;font-size:64px;line-height:34.89%;font-family:'Agency FB';-inkscape-font-specification:'Agency FB Bold Condensed';letter-spacing:5.09346px;word-spacing:0.0404243px;white-space:pre;fill:#ffffff;fill-rule:evenodd;stroke-width:7.56661;paint-order:fill markers stroke"
                       d="m 174.85727,474.73602 c 0,2.875 -0.85417,5.13542 -2.5625,6.78125 -1.70833,1.625 -4.01042,2.4375 -6.90625,2.4375 h -14.90625 v -48.90625 h 14.90625 c 2.89583,0 5.19792,0.83333 6.90625,2.5 1.70833,1.64583 2.5625,3.90625 2.5625,6.78125 z m -7.34375,-1.21875 v -28.09375 c 0,-2.72917 -1.42708,-4.09375 -4.28125,-4.09375 h -5.4375 v 36.34375 h 5.25 c 2.97917,0 4.46875,-1.38542 4.46875,-4.15625 z m 37.7105,5.96875 c 0,2.97917 -1.47917,4.46875 -4.4375,4.46875 h -15.875 c -2.89583,0 -4.34375,-1.48958 -4.34375,-4.46875 v -39.9375 c 0,-3 1.44792,-4.5 4.34375,-4.5 h 15.875 c 2.95833,0 4.4375,1.5 4.4375,4.5 z m -7.3125,-1.8125 v -36.34375 h -10.03125 v 36.34375 z m 37.77299,6.28125 h -6.40625 l -11.71875,-30.78125 c 0.3125,1.5 0.46875,2.67708 0.46875,3.53125 v 27.25 h -7.125 v -48.90625 h 6.40625 l 11.71875,30.15625 c -0.3125,-1.5 -0.46875,-2.67708 -0.46875,-3.53125 v -26.625 h 7.125 z m 31.67204,-48.625 -6.46875,20.4375 c -0.79167,2.02083 -1.86458,5.42708 -3.21875,10.21875 v 17.96875 h -7.34375 v -17.96875 c -0.33333,-1.625 -0.8125,-3.34375 -1.4375,-5.15625 -1.10417,-3.10417 -1.69792,-4.79167 -1.78125,-5.0625 l -6.4375,-20.4375 c -0.0208,-0.0208 -0.0208,-0.11455 0,-0.28125 h 7.53125 l 5.84375,21.25 5.8125,-21.25 h 7.5 z m 39.19609,44.15625 c 0,2.97917 -1.47917,4.46875 -4.4375,4.46875 h -15.875 c -2.89584,0 -4.34375,-1.48958 -4.34375,-4.46875 v -39.9375 c 0,-3 1.44791,-4.5 4.34375,-4.5 h 15.875 c 2.95833,0 4.4375,1.5 4.4375,4.5 z m -7.3125,-1.8125 v -36.34375 h -10.03125 v 36.34375 z m 37.21846,1.8125 c 0,2.97917 -1.48959,4.46875 -4.46875,4.46875 h -15.375 c -2.89584,0 -4.34375,-1.48958 -4.34375,-4.46875 v -39.9375 c 0,-3 1.47916,-4.5 4.4375,-4.5 h 15.28125 c 2.97916,0 4.46875,1.5 4.46875,4.5 v 10.4375 h -7.34375 v -8.65625 h -9.53125 v 36.34375 h 9.53125 v -13.6875 h -5.4375 v -6.21875 h 12.78125 z m 13.03632,4.46875 h -7.3125 v -48.90625 h 7.3125 z m 29.74435,-4.46875 c 0,2.97917 -1.48959,4.46875 -4.46875,4.46875 h -15.25 c -2.89584,0 -4.34375,-1.48958 -4.34375,-4.46875 v -39.9375 c 0,-3 1.44791,-4.5 4.34375,-4.5 h 5.89628 3.05776 6.29596 c 2.97916,0 4.46875,1.5 4.46875,4.5 v 11.4375 h -7.28125 v -9.65625 h -9.46875 v 36.34375 h 9.46875 v -10.28125 h 7.28125 z"
                       id="text1"
                       aria-label="DONY OGIC"
                       sodipodi:nodetypes="scsccscsssssccsssssssssssccccccccscccccsccccccccccccccccccssssssssscccccssssssssccccccccccscccccssssssccssccccccccs"
                       transform="matrix(0.26458324,0,0,0.25905841,22.758631,25.95243)"
                       clip-path="url(#clipPath311)" />
                  </g>
                  <path
                     d="M 72.465848,151.32498 H 70.531083 V 138.6554 h 1.934765 z"
                     style="font-weight:bold;font-stretch:condensed;font-size:64px;line-height:34.89%;font-family:'Agency FB';-inkscape-font-specification:'Agency FB Bold Condensed';letter-spacing:5.09346px;word-spacing:0.0404243px;white-space:pre;fill:#ffffff;fill-rule:evenodd;stroke-width:1.98099;paint-order:fill markers stroke"
                     id="path1-76" />
                  <path
                     d="m 77.059142,151.32407 h -1.934765 v -12.66958 h 1.934765 z"
                     style="font-weight:bold;font-stretch:condensed;font-size:64px;line-height:34.89%;font-family:'Agency FB';-inkscape-font-specification:'Agency FB Bold Condensed';letter-spacing:5.09346px;word-spacing:0.0404243px;white-space:pre;fill:#ffffff;fill-rule:evenodd;stroke-width:1.98099;paint-order:fill markers stroke"
                     id="path1-27" />
                  <path
                     d="m 118.66871,151.32498 h -1.93476 v -12.66957 l 1.98437,-0.008 z"
                     style="font-weight:bold;font-stretch:condensed;font-size:64px;line-height:34.89%;font-family:'Agency FB';-inkscape-font-specification:'Agency FB Bold Condensed';letter-spacing:5.09346px;word-spacing:0.0404243px;white-space:pre;fill:#ffffff;fill-opacity:1;fill-rule:evenodd;stroke-width:1.98099;paint-order:fill markers stroke"
                     id="path1"
                     sodipodi:nodetypes="ccccc" />
                  <path
                     d="m 115.22913,151.32498 h -1.93476 v -12.66957 h 1.93476 z"
                     style="font-weight:bold;font-stretch:condensed;font-size:64px;line-height:34.89%;font-family:'Agency FB';-inkscape-font-specification:'Agency FB Bold Condensed';letter-spacing:5.09346px;word-spacing:0.0404243px;white-space:pre;fill:#0007a2;fill-opacity:1;fill-rule:nonzero;stroke:none;stroke-width:1.98099;stroke-opacity:1;paint-order:fill markers stroke"
                     id="path1-0" />
                  <path
                     style="fill:#0002ff;fill-opacity:1;fill-rule:evenodd;stroke-width:2.002;paint-order:fill markers stroke"
                     d="m 118.66769,140.28291 -7.9e-4,-1.62098 z"
                     id="path55" />
                  <path
                     d="m 107.30034,151.33783 h -1.93476 v -12.66958 h 1.93476 z"
                     style="font-weight:bold;font-stretch:condensed;font-size:64px;line-height:34.89%;font-family:'Agency FB';-inkscape-font-specification:'Agency FB Bold Condensed';letter-spacing:5.09346px;word-spacing:0.0404243px;white-space:pre;fill:#ffffff;fill-rule:evenodd;stroke-width:1.98099;paint-order:fill markers stroke"
                     id="path1-7" />
                  <path
                     d="m 99.292684,151.32636 h -1.934765 v -12.66957 h 1.934765 z"
                     style="font-weight:bold;font-stretch:condensed;font-size:64px;line-height:34.89%;font-family:'Agency FB';-inkscape-font-specification:'Agency FB Bold Condensed';letter-spacing:5.09346px;word-spacing:0.0404243px;white-space:pre;fill:#ffffff;fill-rule:evenodd;stroke-width:1.98099;paint-order:fill markers stroke"
                     id="path1-2"
                     clip-path="url(#clipPath106)" />
                  <path
                     d="m 103.84471,151.32636 h -1.93476 v -12.66957 h 1.93476 z"
                     style="font-weight:bold;font-stretch:condensed;font-size:64px;line-height:34.89%;font-family:'Agency FB';-inkscape-font-specification:'Agency FB Bold Condensed';letter-spacing:5.09346px;word-spacing:0.0404243px;white-space:pre;fill:#ffffff;fill-rule:evenodd;stroke-width:1.98099;paint-order:fill markers stroke"
                     id="path1-1" />
                </g>
              </g>
            </g>
          </g>
        </g>
      </g>
      <path
         style="fill:#000000;fill-opacity:1;stroke:#000000;stroke-width:0.207445;stroke-opacity:1;paint-order:fill markers stroke"
         d="m 97.178704,149.58443 2.38412,0.002 -0.02138,-0.0363 h -2.491031 l 0.05345,0.0384 z"
         id="path5"
         clip-path="url(#clipPath109)" />
    </a>
    <path
       style="fill:#ffffff;fill-opacity:1;fill-rule:evenodd;stroke-width:1.98718;paint-order:fill markers stroke"
       d="m 62.203743,68.600221 -1.336668,4.74044 1.908088,-0.0114 1.372223,-4.72197 z"
       id="path15"
       sodipodi:nodetypes="ccccc"
       clip-path="url(#clipPath314)" />
    <path
       style="fill:#ffffff;fill-opacity:1;fill-rule:evenodd;stroke-width:1.98303;paint-order:fill markers stroke"
       d="m 69.03355,71.653041 -4.51027,0.0102 -0.02484,1.65962 4.53615,0.006 z"
       id="path18" />
    <path
       style="fill:#ffffff;fill-opacity:1;fill-rule:evenodd;stroke-width:2.02012;paint-order:fill markers stroke"
       d="m 63.314908,73.332881 1.982943,-0.0102 4.112169,-12.692626 -2.09904,0.006 z"
       id="path19" />
    <path
       style="fill:#ffffff;fill-opacity:1;fill-rule:evenodd;stroke-width:1.98108;paint-order:markers fill stroke"
       d="m 70.550622,60.66925 -0.0163,12.661924 1.950111,-1.599814 0.0061,-11.066594 z"
       id="path2" />
    <path
       style="display:inline;fill:#ffffff;fill-opacity:1;fill-rule:evenodd;stroke-width:0.999755;paint-order:markers fill stroke"
       d="m 75.438367,60.790104 -3.833721,0.0013 0.493466,1.638378 3.350657,-0.008 z"
       id="path2-8"
       inkscape:transform-center-x="0.18444702"
       inkscape:transform-center-y="-1.9795866" />
  </g>
</svg>
